<svg xmlns="http://www.w3.org/2000/svg" width="1056" height="816" viewBox="0 0 792 612"><defs><clipPath id="a"><path d="M0 0h144v145H0z"/></clipPath><clipPath id="b"><path d="M0 0h332v152H0z"/></clipPath><clipPath id="d"><path d="M52 .32h58V51H52Zm0 0"/></clipPath><clipPath id="c"><path d="M0 0h248v70H0z"/></clipPath><clipPath id="e"><path d="M0 0h705v122H0z"/></clipPath><clipPath id="f"><path d="M53.824 324.945h687.23v5.832H53.825Zm0 0"/></clipPath><clipPath id="g"><path d="M56.738 324.945h681.387a2.92 2.92 0 0 1 2.914 2.918 2.9 2.9 0 0 1-.855 2.059 2.9 2.9 0 0 1-2.059.855H56.738a2.9 2.9 0 0 1-2.058-.855 2.91 2.91 0 0 1 0-4.121 2.9 2.9 0 0 1 2.058-.856m0 0"/></clipPath><clipPath id="i"><path d="M.824.945h687.23v5.832H.825Zm0 0"/></clipPath><clipPath id="j"><path d="M3.738.945h681.387a2.92 2.92 0 0 1 2.914 2.918 2.9 2.9 0 0 1-.855 2.059 2.9 2.9 0 0 1-2.059.855H3.738a2.9 2.9 0 0 1-2.058-.855 2.91 2.91 0 0 1 0-4.121A2.9 2.9 0 0 1 3.738.945m0 0"/></clipPath><clipPath id="h"><path d="M0 0h689v7H0z"/></clipPath><clipPath id="k"><path d="M53.824 358.09H298.72v5.832H53.824Zm0 0"/></clipPath><clipPath id="l"><path d="M56.738 358.09h239.059a2.9 2.9 0 0 1 2.058.855c.551.547.856 1.29.856 2.063s-.305 1.515-.856 2.062a2.9 2.9 0 0 1-2.058.852H56.738a2.9 2.9 0 0 1-2.058-.852 2.92 2.92 0 0 1-.856-2.062 2.92 2.92 0 0 1 2.914-2.918m0 0"/></clipPath><clipPath id="n"><path d="M.824.09H245.72v5.832H.824Zm0 0"/></clipPath><clipPath id="o"><path d="M3.738.09h239.059a2.9 2.9 0 0 1 2.058.855c.551.547.856 1.29.856 2.063s-.305 1.515-.856 2.062a2.9 2.9 0 0 1-2.058.852H3.738A2.9 2.9 0 0 1 1.68 5.07a2.92 2.92 0 0 1-.856-2.062A2.92 2.92 0 0 1 3.738.09m0 0"/></clipPath><clipPath id="m"><path d="M0 0h246v6H0z"/></clipPath><clipPath id="p"><path d="M53.824 390.738h223.684v5.832H53.824Zm0 0"/></clipPath><clipPath id="q"><path d="M56.738 390.738h217.84a2.915 2.915 0 0 1 2.914 2.918c0 .774-.305 1.516-.851 2.063a2.92 2.92 0 0 1-2.063.851H56.738a2.9 2.9 0 0 1-2.058-.851 2.92 2.92 0 0 1-.856-2.063 2.92 2.92 0 0 1 2.914-2.918m0 0"/></clipPath><clipPath id="s"><path d="M.824.738h223.684V6.57H.824Zm0 0"/></clipPath><clipPath id="t"><path d="M3.738.738h217.84a2.915 2.915 0 0 1 2.914 2.918c0 .774-.304 1.516-.851 2.063a2.92 2.92 0 0 1-2.063.851H3.738a2.9 2.9 0 0 1-2.058-.85 2.92 2.92 0 0 1-.856-2.063A2.92 2.92 0 0 1 3.738.738m0 0"/></clipPath><clipPath id="r"><path d="M0 0h225v7H0z"/></clipPath><clipPath id="u"><path d="M53.824 423.39h203.68v5.833H53.824Zm0 0"/></clipPath><clipPath id="v"><path d="M56.738 423.39h197.844a2.915 2.915 0 0 1 2.063 4.977 2.92 2.92 0 0 1-2.063.856H56.738a2.92 2.92 0 0 1-2.914-2.918c0-.774.309-1.516.856-2.063a2.9 2.9 0 0 1 2.058-.851m0 0"/></clipPath><clipPath id="x"><path d="M.824.39h203.68v5.833H.824Zm0 0"/></clipPath><clipPath id="y"><path d="M3.738.39h197.844a2.915 2.915 0 0 1 2.063 4.977 2.92 2.92 0 0 1-2.063.856H3.738A2.92 2.92 0 0 1 .824 3.305c0-.774.309-1.516.856-2.063A2.9 2.9 0 0 1 3.738.391m0 0"/></clipPath><clipPath id="w"><path d="M0 0h205v7H0z"/></clipPath></defs><g fill="#1b2a4a" clip-path="url(#a)" transform="translate(283 321)"><path d="M9.904 118.267q-3.469 0-5.906-2.906-2.437-2.894-2.547-6.25c.23-.93.574-1.39 1.031-1.39q.704-.001.828 1.796.11 1.795 1.844 3.532c1.156 1.164 2.32 1.75 3.484 1.75q9.861 0 17.97-12.188c1.468-2.156 3.284-5.305 5.452-9.437 2.164-4.133 4.563-9.332 7.188-15.594l6.265-15.078Q33.92 62.38 33.92 59.72c0-.852.382-1.532 1.156-2.032q1.155-.75 1.86-.75c.07 0 1.034.024 2.89.063 1.851.031 4.52.086 8 .156Q59.183 31.892 68.7 31.892c2.469 0 4.898 1.157 7.297 3.47q.937.937.937 2.437c0 2.398-.699 3.593-2.094 3.593-.386 0-.773-.304-1.156-.921-.312-.54-.82-.985-1.515-1.329q-1.031-.528-1.97-.53-3.469 0-6.077 2.609-2.613 2.611-4.875 6.78a403 403 0 0 0-4.813 9.157h1.39q12.641.001 16.813-.344.47.129.47.469-.002.925-8.235 2.547c-2.168.312-4.297.664-6.39 1.047-2.087.386-4.204.773-6.36 1.156a400 400 0 0 1-3.72 7.719 940 940 0 0 1-4.983 9.906q-5.457 10.207-8.938 16.234-3.47 6.031-4.86 8-10.09 14.374-19.718 14.375m52.762-23.531q-2.894 0-4.516-2.719-1.624-2.731-1.625-5.28 0-6.952 10.079-19.485 10.2-12.64 16.468-12.64 5.92 0 5.922 6.265 0 .925-.187 1.969-.175 1.048-.391 2.203.218.344 1.156.343 3.122 0 7.422-2.203c-.086 1.313-3.14 3.211-9.172 5.688q1.278 3.83-7.64 14.61-9.176 11.25-15.657 11.25Zm2.094-3.484q4.98 0 12.75-9.156 7.53-8.92 7.531-12.875-1.846-1.044-4.625-5.329-3.957.001-11.375 9.5-7.299 9.284-7.062 14.266c.07 2.398 1 3.594 2.78 3.594m49.159 3.828c-3.325 0-5.606-.867-6.844-2.61q-1.862-2.608-1.86-7.015-.001-4.874 3.016-11.594a41 41 0 0 1 2.438-4.812 46 46 0 0 1 2.672-4q-.471.11-.813.109h-.703q-2.783 0-4.64-3.937l-8.579 11.14q-6.844 8.923-8.344 8.922c-.382 0-.578-.156-.578-.469 0-.383.196-.883.578-1.5q.341-.7 1.391-1.86a174 174 0 0 0 8.11-10.077q3.716-4.998 6.156-9.75 2.67-10.092 6.718-10.094 2.672 0 2.672 2.438 0 2.204-2.906 5.796-2.782 3.597-2.781 3.72c0 1.624 1.195 2.437 3.594 2.437q2.09.001 4.64-1.516l3.016-1.86q.234-.107.703-.109 1.39.001 2.422 1.157 1.043 1.158.703 2.093l-8 10.078q-7.423 9.517-7.422 15.313 0 5.22 5.11 5.219 3.467 0 7.468-2.078 3.997-2.093 7.766-5.157 3.78-3.077 6.328-5.984l2.781-3.25.578-.578q.342-.342.578-.344.811.001.813.813c0 .156-.078.43-.234.812q-.237.58-.813 1.266l-3.703 4.187q-2.672 3-6.563 6.078-3.877 3.08-8 5.047-4.112 1.97-7.468 1.969m0 0"/></g><g fill="#a60e0d" clip-path="url(#b)" transform="translate(424 311)"><path d="M46.06 37.755q.375 0 .375.75t-.375.75q-3.253 0-4.812.75-1.548.751-2.047 2.563-.502 1.798-.5 5.547v68.14c0 9.313-2.312 16.586-6.937 21.828q-6.927 7.875-19.266 7.875c-3.168 0-5.742-.668-7.734-2q-3-2.004-3-5.484.001-2.503 1.625-4.437 1.612-1.939 4.859-1.938 3.122 0 4.797 1.875 1.686 1.875 3.062 5.25.75 1.98 1.5 3.047.75 1.061 1.875 1.062 2.624-.001 3.86-4.25 1.249-4.237 1.25-14.093V47.865c0-2.5-.274-4.328-.813-5.485-.531-1.164-1.508-1.976-2.922-2.437q-2.127-.687-6.75-.688-.251 0-.25-.75-.001-.75.25-.75l7.75.125q5.983.251 9.61.25 3.482.001 8.734-.25Zm76.386 69.891q.357.001.672.625.312.627-.062.75l-17.22 8.36a1.4 1.4 0 0 1-.624.124q-1.252-.002-2.188-2.687-.924-2.685-1.046-7.297c-5.493 6.492-11.438 9.734-17.844 9.734q-6.877 0-10.813-4.297-3.924-4.311-3.922-11.312V83.302q-.001-8.11-3.875-8.11-1.361.002-3.109.876h-.125q-.504.002-.75-.688-.251-.684.125-.812l16.719-7.985.625-.125q.62 0 1.312.563.687.563.688 1.062v27.579c0 8.992 3.453 13.484 10.36 13.484q2.732 0 5.546-1.188a16.8 16.8 0 0 0 5.063-3.312V83.302q-.001-8.11-3.875-8.11-1.376.002-3.25.876h-.125q-.377.002-.625-.688-.251-.684.125-.812l16.734-7.985q.248-.124.625-.125.622 0 1.297.563.686.563.687 1.062v33.204q0 4.237.813 5.984.81 1.751 2.687 1.75 1.748.001 5.125-1.375Zm72.493 0q.374.001.687.625.31.627.063.75l-17.219 8.36-.625.124q-1.125-.001-2.062-2.375-.926-2.372-1.172-6.484-9.234 8.735-18.844 8.734-5.502-.001-9.937-2.875-4.423-2.871-7.047-8.422-2.612-5.544-2.61-13.046 0-9.482 4.422-15.532c2.957-4.031 6.617-6.96 10.985-8.797q6.545-2.749 13.171-2.75 4.606 0 9.735 1.5V42.255c0-2.914-.274-4.992-.813-6.234q-.814-1.875-2.812-1.875c-1.086 0-2.625.453-4.625 1.36h-.125q-.486.001-.797-.673-.315-.684-.063-.812l18.344-8.625.5-.125q.62 0 1.36.562.75.563.75 1.063v74.39q0 4.238.812 5.985.811 1.751 2.688 1.75 1.623.001 5.109-1.375Zm-32.313 3.734q6.235.002 11.86-5.234V75.193q-2.25-3.105-5.063-4.547-2.813-1.437-6.547-1.438c-4.492 0-7.921 1.563-10.296 4.688q-3.563 4.675-3.563 15.156-.002 10.488 3.734 16.406 3.749 5.924 9.875 5.922m73.383-.734q7.357.127 12.031.875c3.125.492 5.742 1.715 7.86 3.672q3.186 2.935 3.187 8.922 0 6.982-4.313 13.156-4.3 6.186-11.593 9.922-7.301 3.75-15.657 3.75-8.613 0-14.109-3.938-5.484-3.925-5.484-10.281-.002-8.736 12.593-16.969-8.986-1.75-8.984-8.984-.001-7.748 8.734-13.61-4.736-2.249-7.421-6.296-2.689-4.062-2.688-8.563-.001-4.98 3.25-8.469 3.246-3.497 8.297-5.312 5.06-1.812 10.297-1.813 7.858.002 13.484 4c4.32-2.914 8.813-4.375 13.469-4.375.664 0 1 1.168 1 3.5q-.001 1.875-.5 3.938-.503 2.049-1 1.672-5.109-2.123-9.234-2.125h-1q3.375 4.003 3.375 8.984c0 3.336-1.086 6.293-3.25 8.875q-3.235 3.86-8.297 5.922-5.05 2.063-10.422 2.063-3.863 0-7.11-1.125c-1.336 1.418-2 3.203-2 5.359q-.002 3.375 1.813 4.875 1.81 1.5 4.797 1.875 2.999.376 8.875.5m-8.11-41.563q-5.625.002-5.625 9.485 0 5.238 1.5 9.422 1.498 4.172 3.922 6.547 2.436 2.376 5.188 2.375 2.747.001 4.61-2.735 1.874-2.749 1.874-8.375c0-3.57-.586-6.629-1.75-9.172-1.156-2.539-2.633-4.43-4.422-5.672q-2.689-1.875-5.297-1.875m7.11 77.875c4.238 0 7.601-1.336 10.094-4q3.75-3.985 3.75-10.859c0-3.574-.774-6.172-2.313-7.797q-2.297-2.437-5.984-3-3.675-.563-10.672-.687-1.113-.001-3.11-.125a102 102 0 0 1-3.375-.235q-4.235 3.106-4.234 9.969-.002 7.999 4.672 12.36c3.125 2.913 6.848 4.374 11.172 4.374M317 107.52q.244.002.562.5.31.505.062.75-4.628 4.488-9.375 6.485-4.735 1.999-10.344 2-7.862-.001-13.609-3.297-5.735-3.31-8.734-8.859-2.986-5.56-2.985-12.062 0-7.231 3.61-13.344 3.622-6.122 10.047-9.672 6.42-3.563 14.546-3.563 7.734.001 11.97 3.5 4.248 3.488 4.25 10.86c0 2.574-.462 3.86-1.376 3.86l-30.328.124c-.086.586-.125 1.543-.125 2.875q-.002 10.985 5.047 17.219 5.062 6.234 14.547 6.234 3.374.002 5.734-.734 2.372-.748 6.25-2.75Zm-20.97-38.562q-4.112 0-6.859 3.563-2.753 3.549-3.625 9.781l18.094-.234c-.086-4.25-.711-7.492-1.875-9.735q-1.736-3.375-5.735-3.375m0 0"/></g><g clip-path="url(#c)" transform="translate(46 154)"><path fill="#a60e0d" d="M19.44 24.88h6.75c1.489 0 2.93-.21 4.329-.64q2.09-.638 3.672-1.985 1.593-1.358 2.531-3.484.951-2.123.953-5.094-.002-2.233-.719-4.156c-.468-1.282-1.226-2.395-2.265-3.344q-1.548-1.419-4.016-2.188-2.456-.78-6.031-.78-1.628.001-2.64.109c-.68.062-1.212.242-1.594.53q-.564.441-.766 1.345-.204.908-.203 2.53Zm5.813-23.5q3.703 0 7.657.61 3.95.609 7.187 2.203c2.164 1.054 3.938 2.5 5.313 4.343q2.062 2.766 2.062 7.157 0 3.315-1.453 5.453a10.54 10.54 0 0 1-3.781 3.375c-1.555.824-3.297 1.398-5.235 1.718a36 36 0 0 1-5.75.47H19.441v16.14q-.002 2.034.265 3.219c.176.78.536 1.367 1.079 1.75q.81.579 2.328.718 1.53.13 4.03.188v1.828H2.754v-1.828q2.155-.06 3.5-.188c.907-.093 1.602-.332 2.094-.718.5-.383.836-.957 1.016-1.72q.28-1.152.28-3.25V9.084q0-2.091-.28-3.234-.268-1.155-1.016-1.735c-.492-.382-1.187-.617-2.094-.703-.898-.093-2.062-.16-3.5-.203V1.38Zm0 0"/><g clip-path="url(#d)"><path fill="#a60e0d" d="M66.502 33.536h19.531L75.955 12.521Zm6.828-26.14q1.746-1.421 2.86-2.5 1.125-1.09 1.828-1.828.714-.75 1.125-1.22c.27-.312.472-.554.609-.734q.468-.686.875-.687.2.002.36.203.168.205.718 1.219l19.922 41.14q.75 1.549 1.36 2.563.609 1.018 1.406 1.656.81.645 2 .985c.789.218 1.836.398 3.14.53h.063v1.829H85.83v-1.828q2.825 0 4.406-.61 1.594-.61 1.594-2.156 0-.545-.234-1.25-.235-.703-.547-1.375-.299-.686-.61-1.297-.3-.609-.5-.937l-2.562-5.203h-21.75l-1.953 4.656q-.206.469-.516 1.219-.298.75-.531 1.5c-.156.492-.305.968-.437 1.437q-.205.704-.204 1.11 0 .486.235.984.233.503.906.953.669.44 1.781.703 1.125.268 2.953.266v1.828H52.05v-1.828q2.232-.468 3.61-1.281 1.386-.812 2.5-2.22 1.124-1.417 2.171-3.609 1.044-2.2 2.531-5.515l11.89-26.485q-.206-.527-.547-1.265-.346-.75-.875-.953m0 0"/></g><path fill="#a60e0d" d="M140.177 1.38v1.828q-2.157.064-3.515.203c-.899.086-1.594.32-2.094.703q-.737.58-1 1.735c-.18.762-.266 1.84-.266 3.234v24.453c0 5.313 1.242 9.336 3.735 12.063q3.75 4.078 11.39 4.078 4.045.002 7.485-.906 3.452-.922 5.984-2.703 2.53-1.795 3.953-4.422c.945-1.758 1.422-3.766 1.422-6.016V9.286c0-1.351-.172-2.422-.516-3.203q-.504-1.183-1.453-1.828-.94-.639-2.36-.844c-.937-.132-2.042-.203-3.312-.203V1.38h16.563v1.828q-1.63.002-2.813.203c-.78.137-1.445.407-1.984.813q-.813.597-1.187 1.781-.375 1.189-.375 3.203v26.219c0 1.937-.352 3.867-1.047 5.781q-1.048 2.86-3.72 5.156-2.66 2.3-7.218 3.72-4.566 1.42-11.515 1.421-22.83 0-22.829-18.047V9.348q-.001-3.245-1.25-4.687-1.254-1.453-4.5-1.453V1.38Zm71.517 0v1.828q-2.157.064-3.516.203-1.345.129-2.094.703-.736.58-1.015 1.735c-.18.762-.266 1.84-.266 3.234v33.64q-.001 2.017.344 3.235.34 1.22 1.25 1.828.903.61 2.422.782 1.53.157 3.968.156 4.513.002 7.72-.5 3.217-.515 5.75-1.89 2.529-1.39 4.624-3.891c1.395-1.664 2.86-3.829 4.39-6.485l1.688.203-3.984 14.391h-44.844v-1.828q2.155-.06 3.5-.188 1.358-.14 2.094-.718.748-.575 1.016-1.72.28-1.152.28-3.25V9.084q0-2.091-.28-3.234c-.18-.77-.516-1.348-1.016-1.735q-.736-.574-2.094-.703-1.345-.139-3.5-.203V1.38Zm0 0"/></g><g fill="#1b2a4a" clip-path="url(#e)" transform="translate(43 223)"><path d="M33.3 76.287c0 2.218.176 4.008.531 5.36q.528 2.015 2.016 3.093 1.499 1.066 4.234 1.36 2.73.296 7.266.296 9.281 0 15.937-3.094 6.67-3.092 10.954-8.562 4.295-5.483 6.312-12.735 2.03-7.264 2.031-15.718 0-6.423-1.547-12.844a39.3 39.3 0 0 0-5.125-12.031q-4.17-6.67-11.25-10.953c-4.718-2.852-10.492-4.282-17.312-4.282-2.543 0-4.711.024-6.5.063q-2.672.046-4.344.469-1.658.422-2.437 1.203-.767.768-.766 2.187ZM53.894 2.959q8.451.002 16.844 2.921 8.389 2.909 15.109 8.454Q92.58 19.866 96.8 27.896q4.22 8.032 4.219 18.39 0 10.596-3.75 18.688c-2.492 5.399-5.82 9.922-9.985 13.578q-6.252 5.472-14.343 8.266-8.097 2.799-16.797 2.797H5.44v-3.219q3.326-.107 5.36-.344 2.027-.247 3.218-1.25 1.183-1.014 1.594-3.03.42-2.028.421-5.72V16.537q0-3.703-.421-5.719-.41-2.029-1.594-3.031-1.19-1.015-3.219-1.25-2.031-.247-5.36-.36V2.96Zm122.7 0 9.047 22.734-2.14.828a361 361 0 0 0-6.548-7.734q-3.205-3.684-6.78-6.485a31.4 31.4 0 0 0-7.75-4.453q-4.159-1.67-9.266-1.672h-20v37.141h7.14c7.301 0 13.192-1.445 17.672-4.344q6.732-4.358 7.688-13.047v-.109h2.843v40.344h-2.843v-.11q-.486-4.762-2.032-8.453c-1.03-2.457-2.523-4.5-4.468-6.125q-2.907-2.45-7.438-3.703-4.519-1.249-10.953-1.25h-7.61v34.766q0 2.737.704 3.922.715 1.188 3.453 1.187h13.578q7.265 0 12.016-1.36c3.175-.913 5.953-2.265 8.328-4.046q3.576-2.685 6.734-6.781 3.153-4.108 7.078-9.704l2.625 1.422L181 89.615h-73.922v-3.219q2.746-.107 4.47-.344 1.733-.247 2.671-1.25.949-1.013 1.313-3.093.358-2.093.359-5.657V16.537q0-3.576-.36-5.657-.364-2.091-1.312-3.093-.938-1.015-2.672-1.25-1.721-.247-4.469-.36V2.96Zm43.208 73.328c0 2.218.176 4.008.531 5.36q.528 2.015 2.016 3.093 1.499 1.066 4.234 1.36 2.73.296 7.266.296 9.281 0 15.937-3.094 6.67-3.092 10.953-8.562 4.297-5.483 6.313-12.735 2.03-7.264 2.031-15.718 0-6.423-1.547-12.844a39.3 39.3 0 0 0-5.125-12.031q-4.17-6.67-11.25-10.953c-4.718-2.852-10.492-4.282-17.312-4.282-2.543 0-4.711.024-6.5.063q-2.672.046-4.344.469-1.658.422-2.437 1.203-.767.768-.766 2.187Zm20.594-73.328q8.452.002 16.843 2.921 8.39 2.909 15.11 8.454 6.733 5.532 10.953 13.562 4.218 8.032 4.219 18.39 0 10.596-3.75 18.688c-2.492 5.399-5.82 9.922-9.985 13.578q-6.252 5.472-14.343 8.266-8.097 2.799-16.797 2.797h-50.703v-3.219q3.327-.107 5.359-.344 2.029-.247 3.219-1.25 1.184-1.014 1.593-3.03.423-2.028.422-5.72V16.537q0-3.703-.422-5.719-.41-2.029-1.593-3.031-1.19-1.015-3.219-1.25-2.031-.247-5.36-.36V2.96Zm93.419 0v3.218q-3.797.113-6.188.36c-1.586.156-2.812.574-3.687 1.25-.875.668-1.477 1.68-1.797 3.031q-.47 2.016-.469 5.719v59.515q0 3.692.469 5.72c.32 1.343.922 2.355 1.797 3.03.875.668 2.101 1.086 3.687 1.25q2.39.237 6.188.344v3.219h-41.532v-3.219c2.532-.07 4.586-.187 6.172-.344q2.39-.247 3.703-1.25 1.313-1.014 1.782-3.03c.32-1.352.484-3.259.484-5.72V16.537q-.002-3.703-.484-5.719-.47-2.029-1.782-3.031-1.312-1.015-3.703-1.25c-1.586-.164-3.64-.285-6.172-.36V2.96Zm36.299 0 55.828 63.328V16.88q0-3.561-.89-5.64-.892-2.093-2.563-3.219-1.659-1.138-4.156-1.484-2.503-.36-5.844-.36V2.96h29.172v3.218q-2.86 0-4.953.36-2.08.344-3.516 1.422c-.95.718-1.64 1.773-2.078 3.156-.43 1.387-.64 3.273-.64 5.656v74.516h-4.766L354.05 11.052h-.359v64.516q0 5.484 3.516 8.156 3.513 2.672 10.297 2.672v3.219h-30v-3.219q5.589-.232 8.625-3.031 3.046-2.794 3.046-7.797V10.224q-.002-1.668-2.687-2.734-2.672-1.078-8.39-1.313V2.96Zm77.606 22.734q0-5.952 2.312-10.469 2.327-4.53 6.125-7.625 3.81-3.093 8.813-4.703a33.7 33.7 0 0 1 10.36-1.61c2.937 0 5.632.243 8.093.72q3.686.72 6.547 1.562 2.857.832 4.765 1.547 1.905.703 2.86.703c1.101 0 2.25-.375 3.437-1.125q1.793-1.138 2.75-2.688h2.61v30h-2.97q-1.423-4.64-3.921-9.515c-1.668-3.258-3.672-6.219-6.016-8.875a31.2 31.2 0 0 0-8.047-6.547q-4.517-2.562-9.875-2.563-2.737 0-5.53.844-2.802.832-5.063 2.438a12.4 12.4 0 0 0-3.625 3.984q-1.376 2.378-1.375 5.594 0 3.815 2.265 6.547 2.263 2.735 5.89 4.937 3.64 2.205 8.33 4.047a778 778 0 0 1 9.53 3.813q4.829 1.955 9.516 4.343 4.7 2.379 8.328 5.532a25.7 25.7 0 0 1 5.906 7.437q2.264 4.283 2.266 10.125-.002 7.253-2.266 12.438-2.266 5.172-6.437 8.453c-2.774 2.18-6.203 3.761-10.297 4.75q-6.129 1.5-13.734 1.5-3.707 0-7.329-.61-3.629-.596-6.78-1.234a123 123 0 0 1-5.485-1.25q-2.314-.61-3.39-.61-.47.001-1.548.547-1.066.534-3.328 2.907h-3.578V60.568h2.625a112 112 0 0 0 4.703 10.484c1.707 3.336 3.672 6.25 5.89 8.75a26.5 26.5 0 0 0 7.735 6q4.406 2.267 10.36 2.266 3.685 0 7.312-.89 3.638-.891 6.375-2.673 2.73-1.794 4.453-4.343 1.735-2.56 1.735-6.016c0-3.894-1.274-7.07-3.813-9.531q-3.796-3.684-9.516-6.485-5.718-2.796-12.328-5.234-6.596-2.436-12.312-5.89-5.721-3.45-9.531-8.454-3.798-4.997-3.797-12.859M558.529 2.959v3.218q-3.814.113-6.203.36-2.377.235-3.688 1.25-1.3 1.003-1.781 3.031-.468 2.016-.469 5.719V49.38h.235l24.28-30.343a80 80 0 0 0 1.72-2.328 32 32 0 0 0 1.672-2.563q.78-1.312 1.25-2.5.482-1.183.484-2.016c0-1.664-.68-2.656-2.031-2.968-1.344-.32-3.09-.485-5.235-.485V2.96h26.782v3.218q-4.175.11-6.672.532c-1.668.28-3.18.84-4.532 1.671q-2.016 1.254-4.156 3.75c-1.43 1.668-3.25 3.97-5.469 6.907l-13.218 17.14 27.734 38.797a177 177 0 0 0 3.813 5.125q1.67 2.144 3.515 3.578 1.842 1.424 4.281 2.078 2.437.643 6.25.641v3.219h-27.859l-28.078-40.11-4.766 5.11v21.437q0 3.692.469 5.72.48 2.016 1.781 3.03 1.31 1.003 3.688 1.25 2.39.237 6.203.344v3.219h-41.547v-3.219q3.81-.107 6.188-.344 2.388-.247 3.687-1.25 1.313-1.014 1.781-3.03c.32-1.352.485-3.259.485-5.72V16.537q-.002-3.703-.485-5.719-.468-2.029-1.781-3.031-1.299-1.015-3.687-1.25-2.38-.247-6.188-.36V2.96Zm89.255 0v3.218c-.711 0-1.64.024-2.797.063a22 22 0 0 0-3.328.344q-1.613.3-2.797 1.015-1.189.721-1.188 1.906-.001.599.532 1.547c.351.637.734 1.196 1.14 1.672l21.531 29.39 17.5-23.202c2.063-2.696 3.508-4.617 4.344-5.766q1.249-1.734 1.25-3.047-.001-.468-.297-1.187-.297-.715-1.187-1.313-.891-.59-2.625-1-1.723-.422-4.688-.422V2.96h27.735v3.218q-4.173 0-6.97.891-2.798.893-4.937 2.562c-1.43 1.106-2.796 2.477-4.109 4.11a139 139 0 0 0-4.219 5.531l-20.36 27.016v29.765q0 3.563.47 5.657.481 2.08 1.906 3.093 1.436 1.003 4.11 1.25 2.67.237 7.077.344v3.219h-44.39v-3.219q4.406-.107 7.078-.344 2.67-.247 4.094-1.25 1.436-1.013 1.906-3.093.482-2.093.484-5.657v-25.36L619.096 14.74l-3.39-4.688c-.836-1.156-1.747-2.007-2.735-2.562q-1.486-.844-3.687-1.078-2.204-.235-6.375-.235V2.96Zm0 0"/></g><g clip-path="url(#f)"><g clip-path="url(#g)"><g clip-path="url(#h)" transform="translate(53 324)"><g clip-path="url(#i)"><g clip-path="url(#j)"><path fill="#a60e0d" d="M.824.945h687.207v5.832H.824Zm0 0"/></g></g></g></g></g><g clip-path="url(#k)"><g clip-path="url(#l)"><g clip-path="url(#m)" transform="translate(53 358)"><g clip-path="url(#n)"><g clip-path="url(#o)"><path fill="#a60e0d" d="M.824.09H245.72v5.832H.824Zm0 0"/></g></g></g></g></g><g clip-path="url(#p)"><g clip-path="url(#q)"><g clip-path="url(#r)" transform="translate(53 390)"><g clip-path="url(#s)"><g clip-path="url(#t)"><path fill="#a60e0d" d="M.824.738h223.66V6.57H.824Zm0 0"/></g></g></g></g></g><g clip-path="url(#u)"><g clip-path="url(#v)"><g clip-path="url(#w)" transform="translate(53 423)"><g clip-path="url(#x)"><g clip-path="url(#y)"><path fill="#a60e0d" d="M.824.39h203.68v5.833H.824Zm0 0"/></g></g></g></g></g></svg>