<svg xmlns="http://www.w3.org/2000/svg" width="1056" height="816" viewBox="0 0 792 612"><defs><clipPath id="a"><path d="M0 0h143v145H0z"/></clipPath><clipPath id="b"><path d="M0 0h331v153H0z"/></clipPath><clipPath id="d"><path d="M51 .121h59V51H51Zm0 0"/></clipPath><clipPath id="c"><path d="M0 0h248v69H0z"/></clipPath><clipPath id="e"><path d="M0 0h705v121H0z"/></clipPath><clipPath id="f"><path d="M57.738 299.719h687.23v5.832H57.739Zm0 0"/></clipPath><clipPath id="g"><path d="M60.652 299.719h681.383a2.92 2.92 0 0 1 2.918 2.914 2.92 2.92 0 0 1-2.918 2.918H60.652a2.915 2.915 0 0 1-2.062-4.977 2.92 2.92 0 0 1 2.062-.855m0 0"/></clipPath><clipPath id="i"><path d="M.738.719h687.223V6.55H.738Zm0 0"/></clipPath><clipPath id="j"><path d="M3.652.719h681.383a2.92 2.92 0 0 1 2.918 2.914 2.92 2.92 0 0 1-2.918 2.918H3.652A2.915 2.915 0 0 1 1.59 1.574 2.92 2.92 0 0 1 3.652.72m0 0"/></clipPath><clipPath id="h"><path d="M0 0h688v7H0z"/></clipPath><clipPath id="k"><path d="M57.738 332.863h244.895v5.832H57.738Zm0 0"/></clipPath><clipPath id="l"><path d="M60.652 332.863h239.059a2.92 2.92 0 0 1 2.914 2.918 2.9 2.9 0 0 1-.855 2.059 2.9 2.9 0 0 1-2.06.855H60.653a2.92 2.92 0 0 1-2.062-.855 2.915 2.915 0 0 1 2.063-4.977m0 0"/></clipPath><clipPath id="n"><path d="M.738.863h244.895v5.832H.738Zm0 0"/></clipPath><clipPath id="o"><path d="M3.652.863h239.059a2.92 2.92 0 0 1 2.914 2.918 2.9 2.9 0 0 1-.855 2.059 2.9 2.9 0 0 1-2.06.855H3.653A2.92 2.92 0 0 1 1.59 5.84 2.915 2.915 0 0 1 3.653.863m0 0"/></clipPath><clipPath id="m"><path d="M0 0h246v7H0z"/></clipPath><clipPath id="p"><path d="M57.738 365.512h223.684v5.832H57.738Zm0 0"/></clipPath><clipPath id="q"><path d="M60.652 365.512h217.84a2.915 2.915 0 0 1 2.914 2.918c0 .773-.304 1.515-.851 2.062a2.92 2.92 0 0 1-2.063.852H60.652a2.92 2.92 0 0 1-2.062-.852 2.92 2.92 0 0 1-.852-2.062 2.915 2.915 0 0 1 2.914-2.918m0 0"/></clipPath><clipPath id="s"><path d="M.738.512h223.684v5.832H.738Zm0 0"/></clipPath><clipPath id="t"><path d="M3.652.512h217.84a2.915 2.915 0 0 1 2.914 2.918c0 .773-.304 1.515-.851 2.062a2.92 2.92 0 0 1-2.063.852H3.652a2.92 2.92 0 0 1-2.062-.852A2.92 2.92 0 0 1 .738 3.43 2.915 2.915 0 0 1 3.652.512m0 0"/></clipPath><clipPath id="r"><path d="M0 0h225v7H0z"/></clipPath><clipPath id="u"><path d="M57.738 398.16h203.68v5.836H57.738Zm0 0"/></clipPath><clipPath id="v"><path d="M60.652 398.16h197.844a2.919 2.919 0 0 1 0 5.836H60.652a2.915 2.915 0 0 1-2.914-2.918 2.915 2.915 0 0 1 2.914-2.918m0 0"/></clipPath><clipPath id="x"><path d="M.738.16h203.68v5.836H.738Zm0 0"/></clipPath><clipPath id="y"><path d="M3.652.16h197.844a2.919 2.919 0 0 1 0 5.836H3.652A2.915 2.915 0 0 1 .738 3.078 2.915 2.915 0 0 1 3.652.16m0 0"/></clipPath><clipPath id="w"><path d="M0 0h205v6H0z"/></clipPath><clipPath id="A"><path d="M.281 9H32v22H.281Zm0 0"/></clipPath><clipPath id="z"><path d="M0 0h543v39H0z"/></clipPath></defs><g fill="#1b2a4a" clip-path="url(#a)" transform="translate(288 296)"><path d="M8.818 118.04q-3.47 0-5.907-2.906-2.436-2.894-2.546-6.25c.23-.93.574-1.39 1.03-1.39q.705-.001.829 1.796.11 1.795 1.844 3.532c1.156 1.164 2.32 1.75 3.484 1.75q9.86 0 17.969-12.188c1.469-2.156 3.285-5.305 5.453-9.437q3.248-6.2 7.187-15.594l6.266-15.078q-11.595-.122-11.594-2.782-.002-1.278 1.157-2.03 1.155-.75 1.859-.75l2.89.062c1.852.03 4.52.086 8 .156 7.57-16.844 14.532-25.266 20.876-25.266q3.7 0 7.296 3.469.938.938.938 2.438c0 2.398-.7 3.593-2.094 3.593-.387 0-.773-.304-1.156-.922q-.47-.81-1.516-1.328c-.687-.351-1.343-.531-1.968-.531q-3.47 0-6.079 2.61-2.613 2.611-4.875 6.78a403 403 0 0 0-4.812 9.157h1.39q12.64.001 16.813-.344.47.129.469.469 0 .925-8.235 2.547c-2.168.312-4.296.664-6.39 1.047-2.086.386-4.203.773-6.36 1.156a400 400 0 0 1-3.718 7.719 940 940 0 0 1-4.985 9.906q-5.456 10.207-8.937 16.234-3.47 6.031-4.86 8-10.09 14.374-19.718 14.375m52.761-23.531q-2.894 0-4.516-2.719-1.624-2.731-1.625-5.281 0-6.95 10.078-19.484 10.2-12.64 16.47-12.641 5.918.001 5.92 6.266 0 .925-.187 1.968-.175 1.05-.39 2.204.217.344 1.156.343 3.122 0 7.422-2.203c-.086 1.313-3.14 3.211-9.172 5.688q1.278 3.83-7.64 14.609-9.176 11.25-15.657 11.25Zm2.094-3.484q4.98.001 12.75-9.157 7.53-8.918 7.53-12.875-1.846-1.043-4.624-5.328-3.957.001-11.375 9.5-7.299 9.284-7.063 14.266.107 3.596 2.782 3.594m49.157 3.828c-3.324 0-5.605-.867-6.843-2.61-1.243-1.738-1.86-4.078-1.86-7.015q-.001-4.874 3.016-11.594a41 41 0 0 1 2.437-4.812 46 46 0 0 1 2.672-4 3.6 3.6 0 0 1-.812.109h-.703q-2.784 0-4.64-3.938l-8.58 11.141q-6.843 8.923-8.343 8.922-.576 0-.578-.469.002-.574.578-1.5c.227-.469.692-1.086 1.39-1.86a174 174 0 0 0 8.11-10.077q3.717-4.998 6.156-9.75 2.671-10.092 6.72-10.094 2.67 0 2.671 2.437 0 2.206-2.906 5.797-2.782 3.597-2.781 3.719c0 1.625 1.195 2.438 3.593 2.438q2.093.001 4.64-1.516l3.017-1.86q.234-.107.703-.109 1.389.001 2.422 1.156 1.043 1.16.703 2.094l-8 10.078q-7.423 9.517-7.422 15.313 0 5.22 5.11 5.219 3.467 0 7.468-2.079 3.997-2.091 7.766-5.156 3.779-3.077 6.328-5.984l2.78-3.25.58-.578q.34-.342.577-.344.811.002.813.812 0 .237-.235.813c-.156.387-.43.809-.812 1.266l-3.703 4.187q-2.673 3-6.563 6.078-3.877 3.08-8 5.047-4.112 1.97-7.469 1.969m0 0"/></g><g fill="#a60e0d" clip-path="url(#b)" transform="translate(428 285)"><path d="M45.974 38.528q.375 0 .375.75t-.375.75q-3.253 0-4.812.75-1.549.751-2.047 2.563-.502 1.798-.5 5.547v68.14c0 9.313-2.313 16.586-6.938 21.828q-6.926 7.875-19.265 7.875c-3.168 0-5.742-.668-7.735-2q-3-2.004-3-5.484.001-2.502 1.625-4.438 1.613-1.938 4.86-1.937 3.122 0 4.797 1.875 1.686 1.875 3.062 5.25.75 1.98 1.5 3.047.75 1.061 1.875 1.062 2.624-.001 3.86-4.25 1.249-4.237 1.25-14.093V48.638c0-2.5-.274-4.329-.813-5.485-.531-1.164-1.508-1.976-2.922-2.437q-2.127-.687-6.75-.688-.251 0-.25-.75-.001-.75.25-.75l7.75.125q5.983.251 9.61.25 3.482.001 8.734-.25Zm76.386 69.891q.356.001.672.625.311.627-.063.75l-17.218 8.36a1.4 1.4 0 0 1-.625.124q-1.252-.002-2.188-2.687-.925-2.686-1.047-7.297c-5.492 6.492-11.437 9.734-17.843 9.734q-6.877 0-10.813-4.297-3.924-4.311-3.922-11.312V84.075q-.001-8.11-3.875-8.11-1.36.001-3.11.876h-.124q-.504.002-.75-.688-.251-.684.125-.812l16.719-7.985.625-.125q.62 0 1.312.563.687.563.688 1.062v27.578c0 8.993 3.453 13.485 10.359 13.485 1.82 0 3.672-.395 5.547-1.188a16.8 16.8 0 0 0 5.062-3.312V84.075q-.001-8.11-3.875-8.11-1.376.001-3.25.876h-.125q-.376.002-.625-.688-.251-.684.125-.812l16.735-7.985q.248-.124.625-.125.621 0 1.297.563.686.563.687 1.062v33.203q0 4.237.813 5.985.81 1.751 2.687 1.75 1.748.001 5.125-1.375Zm72.493 0c.25 0 .476.21.687.625q.31.627.063.75l-17.219 8.36-.625.124q-1.125-.001-2.062-2.375-.927-2.372-1.172-6.484-9.235 8.735-18.844 8.734-5.502-.001-9.938-2.875-4.422-2.871-7.046-8.422c-1.743-3.695-2.61-8.047-2.61-13.047 0-6.32 1.473-11.5 4.422-15.53q4.434-6.046 10.984-8.798 6.546-2.749 13.172-2.75 4.607 0 9.735 1.5V43.028c0-2.914-.274-4.992-.813-6.234q-.814-1.875-2.812-1.875c-1.086 0-2.625.453-4.625 1.36h-.125q-.487.001-.797-.673-.315-.684-.063-.812l18.344-8.625.5-.125q.62 0 1.36.562.75.563.75 1.063v74.39q-.001 4.237.812 5.985.81 1.751 2.687 1.75 1.623.001 5.11-1.375Zm-32.313 3.734q6.235.002 11.86-5.234V75.966q-2.25-3.105-5.063-4.547-2.813-1.437-6.547-1.438-6.736 0-10.297 4.688-3.562 4.675-3.562 15.156c0 6.992 1.242 12.461 3.734 16.406q3.749 5.923 9.875 5.922m73.383-.734q7.357.127 12.03.875c3.126.492 5.743 1.715 7.86 3.672q3.188 2.935 3.188 8.922 0 6.982-4.313 13.156-4.3 6.186-11.594 9.922-7.3 3.75-15.656 3.75-8.613 0-14.11-3.938-5.483-3.925-5.484-10.281-.001-8.736 12.594-16.969c-5.992-1.168-8.984-4.16-8.984-8.984q-.001-7.748 8.734-13.61c-3.156-1.5-5.633-3.597-7.422-6.296q-2.688-4.062-2.687-8.563-.001-4.98 3.25-8.469 3.246-3.497 8.297-5.312c3.375-1.207 6.804-1.813 10.297-1.813q7.858.002 13.484 4 6.482-4.373 13.469-4.375c.664 0 1 1.168 1 3.5q-.001 1.875-.5 3.938-.503 2.049-1 1.672c-3.407-1.414-6.485-2.125-9.235-2.125h-1q3.375 4.003 3.375 8.984c0 3.336-1.086 6.293-3.25 8.875q-3.234 3.86-8.297 5.922-5.05 2.062-10.421 2.062-3.863 0-7.11-1.125c-1.336 1.418-2 3.204-2 5.36q-.002 3.375 1.813 4.875 1.809 1.5 4.797 1.875 2.999.376 8.875.5m-8.11-41.563q-5.625.002-5.625 9.485 0 5.238 1.5 9.422 1.498 4.171 3.922 6.546 2.436 2.377 5.188 2.375 2.747.001 4.609-2.734 1.875-2.749 1.875-8.375c0-3.57-.586-6.629-1.75-9.172-1.156-2.539-2.633-4.43-4.422-5.672q-2.689-1.875-5.297-1.875m7.11 77.875c4.238 0 7.601-1.336 10.093-4q3.75-3.985 3.75-10.86-.002-5.358-2.312-7.796-2.297-2.437-5.985-3-3.674-.563-10.671-.687-1.113-.001-3.11-.125a102 102 0 0 1-3.375-.235q-4.235 3.106-4.234 9.969-.002 7.999 4.672 12.36c3.125 2.913 6.847 4.374 11.172 4.374m81.99-39.437q.246.001.563.5.31.504.062.75-4.628 4.487-9.375 6.484-4.735 1.999-10.344 2-7.862-.001-13.61-3.297-5.734-3.31-8.733-8.86c-1.993-3.706-2.985-7.726-2.985-12.062q0-7.232 3.61-13.343 3.623-6.122 10.046-9.672 6.422-3.563 14.547-3.563 7.734.001 11.969 3.5 4.249 3.488 4.25 10.86-.001 3.86-1.375 3.86l-30.328.124c-.086.586-.125 1.543-.125 2.875q-.002 10.986 5.047 17.219 5.061 6.234 14.547 6.234 3.374.002 5.734-.734 2.372-.748 6.25-2.75ZM295.944 69.73q-4.112 0-6.86 3.563-2.752 3.549-3.624 9.781l18.094-.234c-.086-4.25-.711-7.492-1.875-9.735q-1.736-3.375-5.735-3.375m0 0"/></g><g clip-path="url(#c)" transform="translate(50 129)"><path fill="#a60e0d" d="M19.355 24.653h6.75c1.488 0 2.93-.21 4.328-.64q2.09-.639 3.672-1.985 1.593-1.358 2.53-3.484.953-2.123.954-5.094-.002-2.233-.719-4.156-.705-1.922-2.265-3.344-1.549-1.419-4.016-2.188-2.457-.78-6.031-.78-1.628.001-2.641.108-1.019.096-1.594.532c-.375.293-.633.742-.765 1.343q-.204.909-.203 2.532Zm5.812-23.5q3.703 0 7.656.61c2.633.406 5.032 1.14 7.188 2.202 2.164 1.055 3.937 2.5 5.312 4.344q2.063 2.767 2.063 7.156 0 3.316-1.453 5.454a10.54 10.54 0 0 1-3.782 3.375c-1.554.824-3.296 1.398-5.234 1.718a36 36 0 0 1-5.75.47H19.355v16.14c0 1.355.085 2.43.265 3.218.176.782.535 1.368 1.078 1.75q.81.579 2.328.72 1.53.128 4.032.187v1.828H2.667v-1.828q2.155-.06 3.5-.188 1.358-.14 2.094-.719.748-.575 1.015-1.718.282-1.154.282-3.25V8.856q0-2.092-.282-3.234c-.18-.77-.515-1.348-1.015-1.735q-.736-.574-2.094-.703c-.898-.094-2.062-.16-3.5-.203V1.153Zm0 0"/><g clip-path="url(#d)"><path fill="#a60e0d" d="M66.416 33.31h19.531L75.869 12.293Zm6.828-26.141q1.746-1.421 2.86-2.5 1.125-1.09 1.827-1.829.716-.75 1.125-1.218c.27-.313.473-.555.61-.735q.466-.686.875-.687.2.002.36.203.167.205.718 1.219l19.922 41.14q.75 1.549 1.36 2.563.608 1.018 1.405 1.656.81.645 2 .984 1.184.331 3.141.532h.063v1.828H85.744v-1.828q2.824 0 4.406-.61 1.594-.61 1.594-2.156 0-.545-.234-1.25-.236-.703-.547-1.375-.3-.686-.61-1.297-.3-.61-.5-.937l-2.562-5.203H65.54l-1.953 4.656q-.206.468-.516 1.219-.299.75-.531 1.5c-.156.492-.305.968-.438 1.437q-.203.704-.203 1.11 0 .486.235.984.233.503.906.953.668.44 1.781.703 1.125.268 2.953.266v1.828H51.963v-1.828q2.232-.468 3.609-1.282 1.388-.81 2.5-2.218 1.124-1.419 2.172-3.61 1.043-2.2 2.531-5.515l11.89-26.485q-.205-.527-.546-1.265-.347-.75-.875-.953m0 0"/></g><path fill="#a60e0d" d="M140.091 1.153v1.828q-2.156.064-3.516.203-1.345.129-2.093.703-.737.58-1 1.735-.268 1.142-.266 3.234V33.31c0 5.313 1.242 9.336 3.734 12.063q3.75 4.078 11.391 4.078 4.044.002 7.484-.906 3.452-.922 5.985-2.704 2.53-1.794 3.953-4.421c.945-1.758 1.422-3.766 1.422-6.016V9.059c0-1.351-.172-2.422-.516-3.203q-.504-1.183-1.453-1.828-.94-.639-2.36-.844-1.406-.201-3.312-.203V1.153h16.563v1.828q-1.63.002-2.813.203-1.174.204-1.984.813-.814.597-1.188 1.781-.375 1.189-.375 3.203V35.2c0 1.937-.351 3.867-1.047 5.781q-1.048 2.86-3.718 5.156-2.66 2.3-7.219 3.72c-3.043.944-6.883 1.421-11.516 1.421q-22.828 0-22.828-18.047V9.121q-.001-3.245-1.25-4.687-1.254-1.453-4.5-1.453V1.153Zm71.517 0v1.828q-2.157.064-3.516.203c-.899.086-1.594.32-2.094.703q-.736.58-1.015 1.735-.268 1.142-.266 3.234v33.64q-.001 2.017.344 3.235.34 1.22 1.25 1.828.903.61 2.422.781 1.53.158 3.968.157 4.513.002 7.719-.5 3.218-.515 5.75-1.89 2.53-1.39 4.625-3.892 2.094-2.498 4.39-6.484l1.688.203-3.984 14.39h-44.844v-1.827q2.155-.06 3.5-.188 1.358-.14 2.094-.719.748-.575 1.015-1.718.282-1.154.282-3.25V8.856q0-2.092-.282-3.234c-.18-.77-.515-1.348-1.015-1.735q-.737-.574-2.094-.703-1.345-.14-3.5-.203V1.153Zm0 0"/></g><g fill="#1b2a4a" clip-path="url(#e)" transform="translate(47 198)"><path d="M33.214 76.06c0 2.218.176 4.007.531 5.359q.528 2.016 2.016 3.094 1.499 1.066 4.234 1.36 2.73.297 7.266.296 9.281 0 15.937-3.094 6.67-3.091 10.953-8.562c2.864-3.657 4.97-7.899 6.313-12.735 1.351-4.843 2.031-10.082 2.031-15.718q0-6.423-1.547-12.844a39.3 39.3 0 0 0-5.125-12.031q-4.172-6.67-11.25-10.954c-4.718-2.851-10.492-4.28-17.312-4.28q-3.815.002-6.5.062-2.672.046-4.344.468-1.658.423-2.437 1.204-.767.768-.766 2.187ZM53.808 2.73c5.632 0 11.25.977 16.843 2.922q8.39 2.909 15.11 8.453 6.733 5.533 10.953 13.563 4.218 8.032 4.219 18.39 0 10.596-3.75 18.688c-2.493 5.399-5.82 9.922-9.985 13.578q-6.252 5.472-14.343 8.266-8.098 2.799-16.797 2.797H5.355v-3.219c2.218-.07 4.003-.188 5.359-.344q2.028-.247 3.219-1.25 1.184-1.014 1.593-3.031.422-2.028.422-5.719V16.31q0-3.704-.422-5.72-.41-2.026-1.593-3.03-1.19-1.015-3.22-1.25-2.032-.247-5.358-.36V2.731Zm122.7.001 9.047 22.735-2.14.828a361 361 0 0 0-6.548-7.734q-3.205-3.685-6.781-6.485a31.4 31.4 0 0 0-7.75-4.453q-4.158-1.67-9.266-1.672h-20v37.14h7.141c7.3 0 13.191-1.444 17.672-4.343q6.732-4.358 7.687-13.047v-.11h2.844v40.345h-2.844v-.11q-.486-4.763-2.03-8.453-1.55-3.687-4.47-6.125-2.907-2.45-7.437-3.703-4.519-1.249-10.953-1.25h-7.61V81.06q0 2.737.704 3.921.715 1.189 3.453 1.188h13.578q7.264 0 12.015-1.36c3.176-.913 5.954-2.265 8.329-4.046q3.574-2.685 6.734-6.782 3.151-4.107 7.078-9.703l2.625 1.422-6.672 23.688h-73.922v-3.219c1.832-.07 3.32-.188 4.469-.344q1.734-.247 2.672-1.25.95-1.014 1.312-3.094.36-2.091.36-5.656V16.31q0-3.576-.36-5.657-.364-2.091-1.312-3.093-.938-1.015-2.672-1.25-1.721-.247-4.469-.36V2.731Zm43.208 73.329c0 2.218.176 4.007.531 5.359q.527 2.016 2.016 3.094 1.499 1.066 4.234 1.36 2.73.297 7.266.296 9.281 0 15.937-3.094 6.669-3.091 10.953-8.562c2.864-3.657 4.969-7.899 6.313-12.735 1.351-4.843 2.031-10.082 2.031-15.718q0-6.423-1.547-12.844a39.3 39.3 0 0 0-5.125-12.031q-4.171-6.67-11.25-10.954-7.08-4.278-17.312-4.28-3.816.002-6.5.062-2.673.046-4.344.468-1.659.423-2.438 1.204-.766.768-.765 2.187ZM240.31 2.73c5.632 0 11.25.977 16.843 2.922q8.39 2.909 15.11 8.453 6.733 5.533 10.953 13.563 4.219 8.032 4.219 18.39 0 10.596-3.75 18.688c-2.493 5.399-5.82 9.922-9.985 13.578q-6.252 5.472-14.344 8.266-8.096 2.799-16.796 2.797h-50.704v-3.219c2.22-.07 4.004-.188 5.36-.344q2.028-.247 3.219-1.25 1.183-1.014 1.593-3.031.423-2.028.422-5.719V16.31q0-3.704-.422-5.72-.41-2.026-1.593-3.03-1.19-1.015-3.22-1.25-2.031-.247-5.359-.36V2.731Zm93.419.001v3.22q-3.798.111-6.188.359c-1.586.156-2.812.574-3.687 1.25-.875.668-1.477 1.68-1.797 3.03q-.47 2.016-.47 5.72v59.515q0 3.691.47 5.719c.32 1.344.922 2.355 1.797 3.031.875.668 2.101 1.086 3.687 1.25 1.594.156 3.656.274 6.188.344v3.219h-41.532v-3.219c2.532-.07 4.586-.188 6.172-.344q2.39-.247 3.703-1.25 1.313-1.014 1.782-3.031c.32-1.352.484-3.258.484-5.719V16.31c0-2.47-.164-4.375-.484-5.72q-.47-2.026-1.782-3.03-1.313-1.015-3.703-1.25c-1.586-.164-3.64-.286-6.172-.36V2.731Zm36.299 0 55.828 63.329V16.653q0-3.562-.89-5.64-.892-2.093-2.563-3.219-1.66-1.138-4.156-1.484-2.504-.36-5.844-.36V2.731h29.172v3.22q-2.861 0-4.953.359-2.081.345-3.516 1.421-1.423 1.081-2.078 3.157c-.43 1.386-.64 3.273-.64 5.656V91.06h-4.766l-71.657-80.235h-.36v64.516q0 5.484 3.517 8.156 3.513 2.672 10.296 2.672v3.219h-30v-3.219q5.59-.232 8.625-3.031 3.048-2.794 3.047-7.797V9.997q-.002-1.668-2.687-2.734-2.672-1.079-8.39-1.313V2.731Zm77.605 22.735q0-5.952 2.313-10.469 2.327-4.53 6.125-7.625 3.809-3.092 8.812-4.703a33.7 33.7 0 0 1 10.36-1.61c2.937 0 5.633.243 8.094.72q3.686.72 6.546 1.562 2.858.832 4.766 1.547 1.905.703 2.86.703c1.101 0 2.25-.375 3.437-1.125q1.793-1.138 2.75-2.688h2.61v30h-2.97q-1.424-4.64-3.921-9.515c-1.668-3.258-3.672-6.219-6.016-8.875a31.2 31.2 0 0 0-8.047-6.547q-4.517-2.562-9.875-2.563-2.736 0-5.531.844-2.8.832-5.063 2.438a12.4 12.4 0 0 0-3.625 3.984q-1.375 2.378-1.375 5.594-.001 3.815 2.266 6.547 2.263 2.735 5.89 4.937 3.641 2.205 8.329 4.047 4.701 1.844 9.531 3.812c3.219 1.305 6.39 2.75 9.516 4.344q4.7 2.38 8.328 5.531a25.7 25.7 0 0 1 5.906 7.438c1.508 2.855 2.266 6.23 2.266 10.125 0 4.836-.758 8.98-2.266 12.437q-2.267 5.174-6.437 8.454-4.16 3.268-10.297 4.75-6.129 1.5-13.735 1.5c-2.468 0-4.914-.204-7.328-.61q-3.628-.596-6.781-1.234a123 123 0 0 1-5.484-1.25q-2.313-.61-3.391-.61-.469.001-1.547.547-1.065.534-3.328 2.907h-3.578V60.34h2.625a112 112 0 0 0 4.703 10.485q2.562 5.002 5.89 8.75a26.5 26.5 0 0 0 7.735 6q4.405 2.267 10.36 2.266 3.684 0 7.312-.89 3.638-.892 6.375-2.673 2.73-1.793 4.453-4.343 1.734-2.56 1.734-6.016-.002-5.841-3.812-9.531-3.796-3.684-9.516-6.485-5.719-2.795-12.328-5.234-6.596-2.436-12.312-5.89-5.721-3.45-9.532-8.454-3.796-4.997-3.797-12.86m110.81-22.734v3.22q-3.814.111-6.203.359-2.377.235-3.688 1.25-1.3 1.003-1.781 3.03-.47 2.016-.469 5.72v32.843h.234l24.282-30.343a80 80 0 0 0 1.718-2.329 32 32 0 0 0 1.672-2.562q.781-1.312 1.25-2.5c.32-.79.485-1.46.485-2.016 0-1.664-.68-2.656-2.032-2.968-1.343-.32-3.09-.485-5.234-.485V2.731h26.781v3.22c-2.78.073-5.007.25-6.672.53q-2.504.423-4.53 1.672-2.018 1.254-4.157 3.75c-1.43 1.668-3.25 3.97-5.469 6.907l-13.219 17.14 27.735 38.797a177 177 0 0 0 3.812 5.125q1.67 2.144 3.516 3.578 1.842 1.423 4.281 2.078 2.437.643 6.25.641v3.219h-27.86l-28.077-40.11-4.766 5.11v21.437q0 3.691.469 5.719.48 2.016 1.781 3.031 1.31 1.003 3.688 1.25c1.593.156 3.66.274 6.203.344v3.219h-41.547v-3.219c2.539-.07 4.601-.188 6.187-.344 1.594-.164 2.82-.582 3.688-1.25q1.313-1.014 1.781-3.031.482-2.028.484-5.719V16.31q-.002-3.704-.484-5.72-.468-2.026-1.781-3.03-1.299-1.015-3.688-1.25-2.379-.247-6.187-.36V2.731Zm89.254 0v3.22q-1.063.002-2.796.062a22 22 0 0 0-3.329.343q-1.612.301-2.796 1.016-1.189.721-1.188 1.906 0 .598.531 1.547.53.957 1.141 1.672l21.531 29.39 17.5-23.202c2.063-2.696 3.508-4.618 4.344-5.766q1.249-1.734 1.25-3.047c0-.312-.102-.707-.297-1.187q-.299-.715-1.187-1.313-.892-.59-2.625-1-1.723-.422-4.688-.422V2.731h27.734v3.22q-4.172 0-6.968.89-2.8.893-4.938 2.562c-1.43 1.106-2.797 2.477-4.11 4.11a139 139 0 0 0-4.218 5.531l-20.36 27.016v29.765q0 3.564.47 5.656.481 2.08 1.906 3.094 1.436 1.003 4.11 1.25c1.78.156 4.14.274 7.077.344v3.219h-44.39v-3.219c2.937-.07 5.296-.188 7.078-.344q2.67-.247 4.093-1.25 1.437-1.014 1.907-3.094.482-2.091.484-5.656v-25.36L619.01 14.514l-3.39-4.688q-1.254-1.733-2.735-2.562-1.486-.844-3.688-1.078t-6.375-.235v-3.22Zm0 0"/></g><g clip-path="url(#f)"><g clip-path="url(#g)"><g clip-path="url(#h)" transform="translate(57 299)"><g clip-path="url(#i)"><g clip-path="url(#j)"><path fill="#a60e0d" d="M.738.719h687.207V6.55H.738Zm0 0"/></g></g></g></g></g><g clip-path="url(#k)"><g clip-path="url(#l)"><g clip-path="url(#m)" transform="translate(57 332)"><g clip-path="url(#n)"><g clip-path="url(#o)"><path fill="#a60e0d" d="M.738.863h244.895v5.832H.738Zm0 0"/></g></g></g></g></g><g clip-path="url(#p)"><g clip-path="url(#q)"><g clip-path="url(#r)" transform="translate(57 365)"><g clip-path="url(#s)"><g clip-path="url(#t)"><path fill="#a60e0d" d="M.738.512h223.66v5.832H.738Zm0 0"/></g></g></g></g></g><g clip-path="url(#u)"><g clip-path="url(#v)"><g clip-path="url(#w)" transform="translate(57 398)"><g clip-path="url(#x)"><g clip-path="url(#y)"><path fill="#a60e0d" d="M.738.16h203.68v5.836H.738Zm0 0"/></g></g></g></g></g><g clip-path="url(#z)" transform="translate(131 451)"><g clip-path="url(#A)"><path fill="#1b2a4a" d="m15.35 18.803-2.97 11.734H7.194L.943 9.022h4.844L9.959 26.99 14.27 9.022h4.297l4.375 17.968 4.172-17.968h4.625l-6.266 21.515h-5.047l-3-11.734-1.015-5.078h-.063Zm0 0"/></g><path fill="#1b2a4a" d="M49.653 27.834q.293.002.593-.031.294-.029.516-.094l-.312 2.703q-.926.452-2.125.453-1.47 0-2.438-.562c-.637-.383-1.074-1.016-1.312-1.89q-.72 1.22-2.22 1.843-1.5.61-3.546.61-2.316.002-3.688-1.063-1.359-1.06-1.359-3.11 0-1.919 1.547-3.218 1.546-1.312 4.797-1.938l3.922-.75v-.781c0-.863-.243-1.55-.72-2.063-.48-.507-1.167-.765-2.062-.765q-1.394.001-2.39.625-1.002.61-1.36 2.14l-3.546-1.5c.343-1.382 1.117-2.484 2.328-3.296 1.207-.82 2.8-1.235 4.78-1.235q3.388 0 5.392 1.485 1.999 1.487 2 4.515V26.6c0 .824.398 1.234 1.203 1.234m-9.438 0c.563 0 1.133-.098 1.719-.297a3.94 3.94 0 0 0 1.484-.875 1.93 1.93 0 0 0 .61-1.437v-1.688l-3.5.781q-1.064.223-1.625.657c-.368.293-.547.715-.547 1.265 0 1.063.617 1.594 1.86 1.594M65.82 14.24h4.469v16.297H66.32l-.172-2.797q-.815 1.596-2.281 2.36-1.47.764-3.422.765c-1.086 0-2.062-.195-2.937-.578-.868-.394-1.547-1.02-2.047-1.875q-.75-1.294-.75-3.39V14.24h4.468v9.641q-.001 2.003.766 2.734c.508.493 1.195.735 2.063.735 1.062 0 1.96-.348 2.703-1.047q1.108-1.043 1.11-3.328Zm22.43 16.297-4.5-7.203-2.968 3.156v4.047h-4.469V7.1h4.47v14.578l7.077-7.438h5.047l-6.125 6.391 6.516 9.906Zm23.455-8.219q-.001.33-.031.891a8 8 0 0 1-.094.875h-11.531c.238 1.18.703 2.047 1.39 2.61q1.043.843 2.672.843 2.872 0 3.594-2.015l3.64 1.328c-1.062 2.68-3.476 4.015-7.234 4.015-2.687 0-4.773-.742-6.25-2.234q-2.22-2.232-2.219-6.234-.001-4.013 2.125-6.25 2.139-2.234 6.094-2.235 3.812 0 5.828 2.203 2.016 2.207 2.016 6.203m-7.875-5.109c-2.18 0-3.453 1.25-3.828 3.75h7.61q-.27-1.827-1.266-2.781-.987-.968-2.516-.969m19.287 13.656q-2.519-.001-4.468-.734-1.957-.732-3.094-2.39l2.61-2.673q.686 1.455 1.952 2c.844.356 1.82.532 2.938.532q1.418.002 2.203-.407.797-.405.797-1.062-.001-.545-.734-.938-.739-.386-2.532-.75-2.549-.515-4.031-1.218-1.488-.702-2.125-1.703-.626-1.013-.625-2.36c0-.894.273-1.738.828-2.531.563-.79 1.383-1.441 2.469-1.953q1.623-.764 4.031-.766c1.875 0 3.367.29 4.485.86 1.125.562 2.054 1.43 2.796 2.593l-2.937 2.516c-.399-.914-.938-1.594-1.625-2.031q-1.02-.67-2.64-.672-1.378 0-2.157.453c-.523.305-.781.672-.781 1.11q0 .657.75 1.109.748.454 2.797.875 3.592.72 5.047 1.89 1.466 1.175 1.468 3.203c0 1.45-.633 2.653-1.89 3.61q-1.875 1.438-5.532 1.437m22.033-16.953q2.543 0 4.202 1.485 1.655 1.488 1.657 4.453v10.687h-4.454v-9.39q0-2.11-.828-2.907-.813-.81-2.078-.812-.956 0-1.812.453-.862.44-1.407 1.437-.531.986-.53 2.61v8.61h-4.47V7.1h4.47v9.906q.78-1.594 2.14-2.344 1.373-.75 3.11-.75m26.68 13.922q.293.002.594-.031.293-.029.515-.094l-.312 2.703q-.924.452-2.125.453-1.47 0-2.438-.562c-.636-.383-1.074-1.016-1.312-1.89q-.72 1.22-2.219 1.843-1.501.61-3.547.61-2.315.002-3.687-1.063-1.36-1.06-1.36-3.11 0-1.919 1.547-3.218 1.547-1.312 4.797-1.938l3.922-.75v-.781q-.002-1.294-.719-2.063c-.48-.507-1.168-.765-2.062-.765q-1.395.001-2.39.625-1.003.61-1.36 2.14l-3.547-1.5c.344-1.382 1.117-2.484 2.328-3.296 1.207-.82 2.8-1.235 4.781-1.235q3.387 0 5.39 1.485 2 1.487 2 4.515V26.6q-.001 1.235 1.204 1.234m-9.438 0c.563 0 1.133-.098 1.72-.297a3.94 3.94 0 0 0 1.484-.875 1.93 1.93 0 0 0 .609-1.437v-1.688l-3.5.781c-.711.149-1.25.368-1.625.657q-.549.44-.547 1.265c0 1.063.617 1.594 1.86 1.594M206.71 24.6c-.657 2.117-1.794 3.687-3.407 4.718q-2.426 1.547-5.719 1.547-3.205.001-5.531-1.328-2.331-1.34-3.578-3.812c-.836-1.657-1.25-3.633-1.25-5.938q0-3.451 1.265-5.937 1.265-2.484 3.578-3.813 2.312-1.342 5.454-1.344 3.28.001 5.625 1.391 2.356 1.393 3.265 4.188l-4.078 1.734c-.344-1.313-.89-2.242-1.64-2.797q-1.127-.826-2.985-.828-2.673.001-4.25 1.906c-1.055 1.274-1.578 3.106-1.578 5.5q-.001 3.549 1.516 5.469 1.511 1.922 4.218 1.922 3.936 0 4.953-3.813Zm12.219-10.688q3.938 0 6.14 2.25 2.204 2.25 2.203 6.235 0 3.97-2.203 6.218-2.202 2.25-6.14 2.25t-6.14-2.25q-2.204-2.248-2.204-6.218 0-3.985 2.203-6.235 2.204-2.25 6.14-2.25m0 3.328q-1.894.002-2.89 1.282-.985 1.265-.985 3.875 0 2.565.984 3.859.997 1.282 2.89 1.281c1.258 0 2.22-.426 2.876-1.281.664-.863 1-2.148 1-3.86 0-1.738-.336-3.03-1-3.874q-.988-1.28-2.875-1.282m24.536-3h4.47v16.297h-3.97l-.171-2.797q-.816 1.596-2.282 2.36-1.47.764-3.422.765c-1.086 0-2.062-.195-2.937-.578q-1.299-.592-2.047-1.875-.75-1.294-.75-3.39V14.24h4.469v9.641q0 2.003.765 2.734c.508.493 1.196.735 2.063.735 1.062 0 1.96-.348 2.703-1.047q1.108-1.043 1.11-3.328Zm20.212-.328q2.545 0 4.204 1.485c1.101.992 1.656 2.476 1.656 4.453v10.687h-4.453v-9.39q-.002-2.11-.828-2.907-.814-.81-2.079-.812-.956 0-1.812.453-.861.44-1.406 1.437-.533.986-.532 2.61v8.61h-4.468V14.24h4.015l.125 2.907q.844-1.641 2.297-2.438t3.281-.797m22.16 12.656.688 2.954q-.785.627-1.985.984a8.6 8.6 0 0 1-2.484.36q-2.409 0-3.922-1.126-1.516-1.124-1.515-3.797v-8.375h-2.97V14.24h2.97v-3.75l4.453-1.234v4.984h5.28v3.328h-5.28v7.657q0 1.172.609 1.718.61.533 1.64.532.81 0 1.407-.235.592-.247 1.11-.672m20.426-12.328-6.578 17.313c-.524 1.476-1.106 2.656-1.75 3.531q-.956 1.312-2.235 1.875-1.268.576-3.015.578-2.642 0-4.141-1.265l1.11-3.157q.543.61 1.187.797.656.201 1.547.203.938-.002 1.593-.39.656-.392 1.079-1.563l.578-1.39-1.782-4.25-5-12.282h4.97l3.062 9.782.875 3.25.984-3.454 2.984-9.578Zm33.313 10.36c-.657 2.117-1.793 3.687-3.407 4.718q-2.426 1.547-5.718 1.547-3.205.001-5.532-1.328-2.33-1.34-3.578-3.812c-.836-1.657-1.25-3.633-1.25-5.938q0-3.451 1.266-5.937 1.265-2.484 3.578-3.813 2.312-1.342 5.453-1.344 3.282.001 5.625 1.391 2.356 1.393 3.266 4.188l-4.078 1.734c-.344-1.313-.89-2.242-1.64-2.797q-1.126-.826-2.985-.828-2.674.001-4.25 1.906c-1.055 1.274-1.578 3.106-1.578 5.5q0 3.549 1.515 5.469 1.512 1.922 4.219 1.922c2.625 0 4.273-1.27 4.953-3.813Zm6.969-12.703q-2.765.001-2.765-2.375 0-2.421 2.765-2.422 2.766 0 2.766 2.422 0 2.377-2.766 2.375m2.22 2.343v16.297h-4.47V14.24Zm15.291-.328q1.139 0 1.75.36l-.547 3.906c-.5-.32-1.187-.485-2.062-.485q-.974.001-1.875.5-.893.488-1.469 1.454-.562.953-.562 2.453v8.437h-4.47V14.24h3.876l.297 3.188q.654-1.686 1.906-2.594 1.265-.92 3.156-.922m12.998 0q2.31.001 3.812.64 1.499.629 2.375 1.72a6.9 6.9 0 0 1 1.281 2.437l-4.172 1.5c-.398-1.976-1.453-2.969-3.171-2.969q-1.894 0-2.938 1.313c-.687.867-1.031 2.156-1.031 3.875 0 1.73.351 3.015 1.062 3.86q1.078 1.251 2.875 1.25 1.467 0 2.313-.75.844-.75 1.078-2.157l4.047 1.312q-.532 2.192-2.406 3.563-1.875 1.36-4.97 1.36c-2.687 0-4.773-.743-6.25-2.235q-2.219-2.232-2.218-6.234 0-4.013 2.203-6.25 2.202-2.234 6.11-2.235m23.426.328h4.469v16.297h-3.969l-.172-2.797q-.816 1.596-2.281 2.36-1.47.764-3.422.765-1.627-.002-2.938-.578c-.867-.394-1.546-1.02-2.046-1.875q-.75-1.294-.75-3.39V14.24h4.468v9.641q-.001 2.003.766 2.734c.508.493 1.195.735 2.062.735 1.063 0 1.961-.348 2.704-1.047q1.108-1.043 1.109-3.328Zm12.743-2.343q-2.765.001-2.765-2.375 0-2.421 2.765-2.422 2.766 0 2.766 2.422 0 2.377-2.766 2.375m2.219 2.343v16.297h-4.469V14.24ZM432 26.568l.687 2.954q-.784.627-1.984.984a8.6 8.6 0 0 1-2.484.36q-2.41 0-3.922-1.126-1.517-1.124-1.516-3.797v-8.375h-2.969V14.24h2.969v-3.75l4.453-1.234v4.984h5.281v3.328h-5.28v7.657q0 1.172.609 1.718.61.533 1.64.532.81 0 1.406-.235.593-.247 1.11-.672m35-1.968c-.656 2.117-1.793 3.687-3.406 4.718q-2.425 1.547-5.719 1.547-3.204.001-5.53-1.328-2.332-1.34-3.579-3.812c-.836-1.657-1.25-3.633-1.25-5.938q0-3.451 1.266-5.937 1.264-2.484 3.578-3.813c1.539-.894 3.36-1.344 5.453-1.344q3.28.001 5.625 1.391 2.356 1.393 3.266 4.188l-4.079 1.734c-.343-1.313-.89-2.242-1.64-2.797q-1.126-.826-2.985-.828-2.672.001-4.25 1.906-1.58 1.91-1.578 5.5-.001 3.549 1.516 5.469 1.512 1.922 4.219 1.922c2.625 0 4.273-1.27 4.953-3.813Zm12.22-10.688q3.938 0 6.14 2.25 2.205 2.25 2.204 6.235 0 3.97-2.203 6.218-2.204 2.25-6.141 2.25-3.938 0-6.14-2.25-2.205-2.248-2.204-6.218 0-3.985 2.203-6.235 2.204-2.25 6.141-2.25m0 3.328q-1.894.002-2.89 1.282-.985 1.265-.985 3.875 0 2.565.984 3.859.998 1.282 2.891 1.281c1.258 0 2.219-.426 2.875-1.281q.998-1.293 1-3.86-.002-2.608-1-3.874c-.656-.852-1.617-1.282-2.875-1.282m24.536-3h4.468v16.297h-3.968l-.172-2.797q-.816 1.596-2.281 2.36-1.47.764-3.422.765-1.627-.002-2.938-.578-1.299-.592-2.047-1.875-.75-1.294-.75-3.39V14.24h4.47v9.641q-.002 2.003.765 2.734c.508.493 1.195.735 2.062.735 1.063 0 1.961-.348 2.703-1.047q1.11-1.043 1.11-3.328Zm19.727-.328q1.139 0 1.75.36l-.546 3.906c-.5-.32-1.188-.485-2.063-.485q-.972.001-1.875.5-.893.488-1.469 1.454-.562.953-.562 2.453v8.437h-4.469V14.24h3.875l.297 3.188q.654-1.686 1.906-2.594 1.265-.92 3.156-.922m15.736 12.656.687 2.954q-.784.627-1.984.984a8.6 8.6 0 0 1-2.485.36q-2.409 0-3.921-1.126-1.517-1.124-1.516-3.797v-8.375h-2.969V14.24H530v-3.75l4.453-1.234v4.984h5.281v3.328h-5.28v7.657q0 1.172.608 1.718.61.533 1.641.532.81 0 1.406-.235.593-.247 1.11-.672m0 0"/></g></svg>